<svg width="73" height="35" viewBox="0 0 73 35" fill="none" xmlns="http://www.w3.org/2000/svg">
<path d="M17.3756 3V31.7043H11.9125V3H17.3756ZM26.3877 3V7.27804H3V3H26.3877Z" fill="white"/>
<path d="M48.958 3V31.7043H43.4949V3H48.958ZM57.9701 3V7.27804H34.5824V3H57.9701Z" fill="white"/>
<path d="M69.5294 28.5105V31.7043H58.5832V28.5105H69.5294ZM59.8244 10.1761V31.7043H55.7121V10.1761H59.8244Z" fill="white"/>
<path d="M34.6223 26.1152C34.6223 25.7012 34.5575 25.3316 34.4279 25.0063C34.3083 24.6711 34.0839 24.3705 33.755 24.1044C33.4359 23.8283 32.9823 23.5622 32.3942 23.3059C31.816 23.0398 31.0683 22.7638 30.1511 22.4779C29.1342 22.1625 28.1872 21.8076 27.3099 21.4133C26.4326 21.019 25.66 20.5607 24.992 20.0382C24.3341 19.5158 23.8207 18.9145 23.4518 18.2344C23.0829 17.5444 22.8985 16.7459 22.8985 15.8391C22.8985 14.9519 23.0879 14.1436 23.4668 13.4142C23.8556 12.6847 24.4039 12.0588 25.1117 11.5364C25.8195 11.0041 26.6519 10.595 27.609 10.3091C28.576 10.0233 29.6427 9.88035 30.8091 9.88035C32.4241 9.88035 33.8198 10.1711 34.9961 10.7527C36.1825 11.3343 37.0996 12.1229 37.7476 13.1185C38.3956 14.114 38.7196 15.2328 38.7196 16.4748H34.6223C34.6223 15.8046 34.4777 15.2131 34.1886 14.7005C33.9095 14.188 33.4808 13.7838 32.9026 13.4881C32.3344 13.1924 31.6166 13.0445 30.7493 13.0445C29.9118 13.0445 29.214 13.1677 28.6557 13.4142C28.1074 13.6606 27.6937 13.9958 27.4146 14.4196C27.1454 14.8435 27.0108 15.3166 27.0108 15.8391C27.0108 16.2333 27.1055 16.5882 27.2949 16.9036C27.4843 17.2092 27.7685 17.5 28.1473 17.776C28.5261 18.0421 28.9947 18.2935 29.5529 18.5301C30.1212 18.7568 30.7792 18.9835 31.5268 19.2102C32.7232 19.5651 33.7699 19.9594 34.6671 20.3931C35.5743 20.8268 36.327 21.3197 36.9252 21.8717C37.5333 22.4237 37.9869 23.0447 38.286 23.7347C38.595 24.4247 38.7495 25.2084 38.7495 26.0857C38.7495 27.0122 38.5651 27.8402 38.1962 28.5697C37.8274 29.2991 37.299 29.9201 36.6111 30.4327C35.9233 30.9453 35.0958 31.3346 34.1288 31.6008C33.1718 31.8669 32.1001 32 30.9137 32C29.857 32 28.8102 31.862 27.7734 31.586C26.7466 31.3001 25.8145 30.8763 24.9771 30.3144C24.1397 29.7427 23.4717 29.0231 22.9733 28.1557C22.4748 27.2784 22.2256 26.2532 22.2256 25.0802H26.3528C26.3528 25.7604 26.4625 26.3419 26.6818 26.8249C26.9111 27.2981 27.2301 27.6875 27.6389 27.993C28.0576 28.2887 28.5461 28.5056 29.1043 28.6436C29.6626 28.7816 30.2657 28.8506 30.9137 28.8506C31.7512 28.8506 32.439 28.7373 32.9774 28.5105C33.5257 28.274 33.9344 27.9487 34.2036 27.5347C34.4827 27.1207 34.6223 26.6475 34.6223 26.1152Z" fill="white"/>
<g filter="url(#filter0_f_37_2)">
<path d="M17.3756 3V31.7043H11.9125V3H17.3756ZM26.3877 3V7.27804H3V3H26.3877Z" fill="white"/>
<path d="M48.958 3V31.7043H43.4949V3H48.958ZM57.9701 3V7.27804H34.5824V3H57.9701Z" fill="white"/>
<path d="M69.5294 28.5105V31.7043H58.5832V28.5105H69.5294ZM59.8244 10.1761V31.7043H55.7121V10.1761H59.8244Z" fill="white"/>
<path d="M34.6223 26.1152C34.6223 25.7012 34.5575 25.3316 34.4279 25.0063C34.3083 24.6711 34.0839 24.3705 33.755 24.1044C33.4359 23.8283 32.9823 23.5622 32.3942 23.3059C31.816 23.0398 31.0683 22.7638 30.1511 22.4779C29.1342 22.1625 28.1872 21.8076 27.3099 21.4133C26.4326 21.019 25.66 20.5607 24.992 20.0382C24.3341 19.5158 23.8207 18.9145 23.4518 18.2344C23.0829 17.5444 22.8985 16.7459 22.8985 15.8391C22.8985 14.9519 23.0879 14.1436 23.4668 13.4142C23.8556 12.6847 24.4039 12.0588 25.1117 11.5364C25.8195 11.0041 26.6519 10.595 27.609 10.3091C28.576 10.0233 29.6427 9.88035 30.8091 9.88035C32.4241 9.88035 33.8198 10.1711 34.9961 10.7527C36.1825 11.3343 37.0996 12.1229 37.7476 13.1185C38.3956 14.114 38.7196 15.2328 38.7196 16.4748H34.6223C34.6223 15.8046 34.4777 15.2131 34.1886 14.7005C33.9095 14.188 33.4808 13.7838 32.9026 13.4881C32.3344 13.1924 31.6166 13.0445 30.7493 13.0445C29.9118 13.0445 29.214 13.1677 28.6557 13.4142C28.1074 13.6606 27.6937 13.9958 27.4146 14.4196C27.1454 14.8435 27.0108 15.3166 27.0108 15.8391C27.0108 16.2333 27.1055 16.5882 27.2949 16.9036C27.4843 17.2092 27.7685 17.5 28.1473 17.776C28.5261 18.0421 28.9947 18.2935 29.5529 18.5301C30.1212 18.7568 30.7792 18.9835 31.5268 19.2102C32.7232 19.5651 33.7699 19.9594 34.6671 20.3931C35.5743 20.8268 36.327 21.3197 36.9252 21.8717C37.5333 22.4237 37.9869 23.0447 38.286 23.7347C38.595 24.4247 38.7495 25.2084 38.7495 26.0857C38.7495 27.0122 38.5651 27.8402 38.1962 28.5697C37.8274 29.2991 37.299 29.9201 36.6111 30.4327C35.9233 30.9453 35.0958 31.3346 34.1288 31.6008C33.1718 31.8669 32.1001 32 30.9137 32C29.857 32 28.8102 31.862 27.7734 31.586C26.7466 31.3001 25.8145 30.8763 24.9771 30.3144C24.1397 29.7427 23.4717 29.0231 22.9733 28.1557C22.4748 27.2784 22.2256 26.2532 22.2256 25.0802H26.3528C26.3528 25.7604 26.4625 26.3419 26.6818 26.8249C26.9111 27.2981 27.2301 27.6875 27.6389 27.993C28.0576 28.2887 28.5461 28.5056 29.1043 28.6436C29.6626 28.7816 30.2657 28.8506 30.9137 28.8506C31.7512 28.8506 32.439 28.7373 32.9774 28.5105C33.5257 28.274 33.9344 27.9487 34.2036 27.5347C34.4827 27.1207 34.6223 26.6475 34.6223 26.1152Z" fill="white"/>
</g>
<g filter="url(#filter1_f_37_2)">
<path d="M17.3756 3V31.7043H11.9125V3H17.3756ZM26.3877 3V7.27804H3V3H26.3877Z" fill="white"/>
<path d="M48.958 3V31.7043H43.4949V3H48.958ZM57.9701 3V7.27804H34.5824V3H57.9701Z" fill="white"/>
<path d="M69.5294 28.5105V31.7043H58.5832V28.5105H69.5294ZM59.8244 10.1761V31.7043H55.7121V10.1761H59.8244Z" fill="white"/>
<path d="M34.6223 26.1152C34.6223 25.7012 34.5575 25.3316 34.4279 25.0063C34.3083 24.6711 34.0839 24.3705 33.755 24.1044C33.4359 23.8283 32.9823 23.5622 32.3942 23.3059C31.816 23.0398 31.0683 22.7638 30.1511 22.4779C29.1342 22.1625 28.1872 21.8076 27.3099 21.4133C26.4326 21.019 25.66 20.5607 24.992 20.0382C24.3341 19.5158 23.8207 18.9145 23.4518 18.2344C23.0829 17.5444 22.8985 16.7459 22.8985 15.8391C22.8985 14.9519 23.0879 14.1436 23.4668 13.4142C23.8556 12.6847 24.4039 12.0588 25.1117 11.5364C25.8195 11.0041 26.6519 10.595 27.609 10.3091C28.576 10.0233 29.6427 9.88035 30.8091 9.88035C32.4241 9.88035 33.8198 10.1711 34.9961 10.7527C36.1825 11.3343 37.0996 12.1229 37.7476 13.1185C38.3956 14.114 38.7196 15.2328 38.7196 16.4748H34.6223C34.6223 15.8046 34.4777 15.2131 34.1886 14.7005C33.9095 14.188 33.4808 13.7838 32.9026 13.4881C32.3344 13.1924 31.6166 13.0445 30.7493 13.0445C29.9118 13.0445 29.214 13.1677 28.6557 13.4142C28.1074 13.6606 27.6937 13.9958 27.4146 14.4196C27.1454 14.8435 27.0108 15.3166 27.0108 15.8391C27.0108 16.2333 27.1055 16.5882 27.2949 16.9036C27.4843 17.2092 27.7685 17.5 28.1473 17.776C28.5261 18.0421 28.9947 18.2935 29.5529 18.5301C30.1212 18.7568 30.7792 18.9835 31.5268 19.2102C32.7232 19.5651 33.7699 19.9594 34.6671 20.3931C35.5743 20.8268 36.327 21.3197 36.9252 21.8717C37.5333 22.4237 37.9869 23.0447 38.286 23.7347C38.595 24.4247 38.7495 25.2084 38.7495 26.0857C38.7495 27.0122 38.5651 27.8402 38.1962 28.5697C37.8274 29.2991 37.299 29.9201 36.6111 30.4327C35.9233 30.9453 35.0958 31.3346 34.1288 31.6008C33.1718 31.8669 32.1001 32 30.9137 32C29.857 32 28.8102 31.862 27.7734 31.586C26.7466 31.3001 25.8145 30.8763 24.9771 30.3144C24.1397 29.7427 23.4717 29.0231 22.9733 28.1557C22.4748 27.2784 22.2256 26.2532 22.2256 25.0802H26.3528C26.3528 25.7604 26.4625 26.3419 26.6818 26.8249C26.9111 27.2981 27.2301 27.6875 27.6389 27.993C28.0576 28.2887 28.5461 28.5056 29.1043 28.6436C29.6626 28.7816 30.2657 28.8506 30.9137 28.8506C31.7512 28.8506 32.439 28.7373 32.9774 28.5105C33.5257 28.274 33.9344 27.9487 34.2036 27.5347C34.4827 27.1207 34.6223 26.6475 34.6223 26.1152Z" fill="white"/>
</g>
<defs>
<filter id="filter0_f_37_2" x="2.5" y="2.5" width="67.5294" height="30" filterUnits="userSpaceOnUse" color-interpolation-filters="sRGB">
<feFlood flood-opacity="0" result="BackgroundImageFix"/>
<feBlend mode="normal" in="SourceGraphic" in2="BackgroundImageFix" result="shape"/>
<feGaussianBlur stdDeviation="0.25" result="effect1_foregroundBlur_37_2"/>
</filter>
<filter id="filter1_f_37_2" x="0" y="0" width="72.5294" height="35" filterUnits="userSpaceOnUse" color-interpolation-filters="sRGB">
<feFlood flood-opacity="0" result="BackgroundImageFix"/>
<feBlend mode="normal" in="SourceGraphic" in2="BackgroundImageFix" result="shape"/>
<feGaussianBlur stdDeviation="1.5" result="effect1_foregroundBlur_37_2"/>
</filter>
</defs>
</svg>
